#N canvas 0 0 1334 681 10;
#N canvas 0 0 1350 674 controller01 0;
#N canvas 0 0 1350 697 poly_blip1 0;
#N canvas 620 120 517 465 blip 0;
#X obj 120 253 osc~;
#X obj 181 251 vline~;
#X obj 169 286 *~;
#X obj 137 342 *~;
#X obj 137 369 outlet~;
#X obj 104 117 mtof;
#X obj 301 42 inlet;
#X obj 103 82 unpack f f;
#X obj 184 117 t b f;
#X obj 104 35 inlet;
#X msg 180 216 1 2 0 \, 0 \$1 3;
#X obj 182 320 *~;
#X obj 166 158 float;
#X connect 0 0 3 0;
#X connect 1 0 2 0;
#X connect 1 0 2 1;
#X connect 2 0 11 0;
#X connect 3 0 4 0;
#X connect 5 0 0 0;
#X connect 6 0 12 1;
#X connect 7 0 5 0;
#X connect 7 1 8 0;
#X connect 8 0 12 0;
#X connect 8 1 11 1;
#X connect 9 0 7 0;
#X connect 10 0 1 0;
#X connect 11 0 3 1;
#X connect 12 0 10 0;
#X restore 82 277 pd blip;
#X obj 242 -41 inlet;
#X obj 18 -19 hsl 133 16 10 1000 1 1 empty decay empty 2 5 0 10 -262144
-1 -1 6298 1;
#X obj 321 160 pack 0 0 0;
#X obj 315 106 poly 16 1;
#X obj 405 -31 inlet;
#X obj 319 181 route 1 2 3 4 5 6 7 8 9 10 11 12 13 14 15 16;
#N canvas 459 131 517 465 blip 0;
#X obj 120 253 osc~;
#X obj 181 251 vline~;
#X obj 169 286 *~;
#X obj 137 342 *~;
#X obj 137 369 outlet~;
#X obj 104 117 mtof;
#X obj 301 42 inlet;
#X obj 103 82 unpack f f;
#X obj 184 117 t b f;
#X obj 104 35 inlet;
#X msg 180 216 1 2 0 \, 0 \$1 3;
#X obj 182 320 *~;
#X obj 166 158 float;
#X connect 0 0 3 0;
#X connect 1 0 2 0;
#X connect 1 0 2 1;
#X connect 2 0 11 0;
#X connect 3 0 4 0;
#X connect 5 0 0 0;
#X connect 6 0 12 1;
#X connect 7 0 5 0;
#X connect 7 1 8 0;
#X connect 8 0 12 0;
#X connect 8 1 11 1;
#X connect 9 0 7 0;
#X connect 10 0 1 0;
#X connect 11 0 3 1;
#X connect 12 0 10 0;
#X restore 148 277 pd blip;
#N canvas 42 139 517 419 blip 0;
#X obj 120 253 osc~;
#X obj 181 251 vline~;
#X obj 169 286 *~;
#X obj 137 342 *~;
#X obj 137 369 outlet~;
#X obj 104 117 mtof;
#X obj 301 42 inlet;
#X obj 103 82 unpack f f;
#X obj 184 117 t b f;
#X obj 104 35 inlet;
#X msg 180 216 1 2 0 \, 0 \$1 3;
#X obj 182 320 *~;
#X obj 166 158 float;
#X connect 0 0 3 0;
#X connect 1 0 2 0;
#X connect 1 0 2 1;
#X connect 2 0 11 0;
#X connect 3 0 4 0;
#X connect 5 0 0 0;
#X connect 6 0 12 1;
#X connect 7 0 5 0;
#X connect 7 1 8 0;
#X connect 8 0 12 0;
#X connect 8 1 11 1;
#X connect 9 0 7 0;
#X connect 10 0 1 0;
#X connect 11 0 3 1;
#X connect 12 0 10 0;
#X restore 208 278 pd blip;
#N canvas 42 139 517 419 blip 0;
#X obj 120 253 osc~;
#X obj 181 251 vline~;
#X obj 169 286 *~;
#X obj 137 342 *~;
#X obj 137 369 outlet~;
#X obj 104 117 mtof;
#X obj 301 42 inlet;
#X obj 103 82 unpack f f;
#X obj 184 117 t b f;
#X obj 104 35 inlet;
#X msg 180 216 1 2 0 \, 0 \$1 3;
#X obj 182 320 *~;
#X obj 166 158 float;
#X connect 0 0 3 0;
#X connect 1 0 2 0;
#X connect 1 0 2 1;
#X connect 2 0 11 0;
#X connect 3 0 4 0;
#X connect 5 0 0 0;
#X connect 6 0 12 1;
#X connect 7 0 5 0;
#X connect 7 1 8 0;
#X connect 8 0 12 0;
#X connect 8 1 11 1;
#X connect 9 0 7 0;
#X connect 10 0 1 0;
#X connect 11 0 3 1;
#X connect 12 0 10 0;
#X restore 274 278 pd blip;
#N canvas 42 139 517 419 blip 0;
#X obj 120 253 osc~;
#X obj 181 251 vline~;
#X obj 169 286 *~;
#X obj 137 342 *~;
#X obj 137 369 outlet~;
#X obj 104 117 mtof;
#X obj 301 42 inlet;
#X obj 103 82 unpack f f;
#X obj 184 117 t b f;
#X obj 104 35 inlet;
#X msg 180 216 1 2 0 \, 0 \$1 3;
#X obj 182 320 *~;
#X obj 166 158 float;
#X connect 0 0 3 0;
#X connect 1 0 2 0;
#X connect 1 0 2 1;
#X connect 2 0 11 0;
#X connect 3 0 4 0;
#X connect 5 0 0 0;
#X connect 6 0 12 1;
#X connect 7 0 5 0;
#X connect 7 1 8 0;
#X connect 8 0 12 0;
#X connect 8 1 11 1;
#X connect 9 0 7 0;
#X connect 10 0 1 0;
#X connect 11 0 3 1;
#X connect 12 0 10 0;
#X restore 337 282 pd blip;
#N canvas 42 139 517 419 blip 0;
#X obj 120 253 osc~;
#X obj 181 251 vline~;
#X obj 169 286 *~;
#X obj 137 342 *~;
#X obj 137 369 outlet~;
#X obj 104 117 mtof;
#X obj 301 42 inlet;
#X obj 103 82 unpack f f;
#X obj 184 117 t b f;
#X obj 104 35 inlet;
#X msg 180 216 1 2 0 \, 0 \$1 3;
#X obj 182 320 *~;
#X obj 166 158 float;
#X connect 0 0 3 0;
#X connect 1 0 2 0;
#X connect 1 0 2 1;
#X connect 2 0 11 0;
#X connect 3 0 4 0;
#X connect 5 0 0 0;
#X connect 6 0 12 1;
#X connect 7 0 5 0;
#X connect 7 1 8 0;
#X connect 8 0 12 0;
#X connect 8 1 11 1;
#X connect 9 0 7 0;
#X connect 10 0 1 0;
#X connect 11 0 3 1;
#X connect 12 0 10 0;
#X restore 403 282 pd blip;
#N canvas 42 139 517 419 blip 0;
#X obj 120 253 osc~;
#X obj 181 251 vline~;
#X obj 169 286 *~;
#X obj 137 342 *~;
#X obj 137 369 outlet~;
#X obj 104 117 mtof;
#X obj 301 42 inlet;
#X obj 103 82 unpack f f;
#X obj 184 117 t b f;
#X obj 104 35 inlet;
#X msg 180 216 1 2 0 \, 0 \$1 3;
#X obj 182 320 *~;
#X obj 166 158 float;
#X connect 0 0 3 0;
#X connect 1 0 2 0;
#X connect 1 0 2 1;
#X connect 2 0 11 0;
#X connect 3 0 4 0;
#X connect 5 0 0 0;
#X connect 6 0 12 1;
#X connect 7 0 5 0;
#X connect 7 1 8 0;
#X connect 8 0 12 0;
#X connect 8 1 11 1;
#X connect 9 0 7 0;
#X connect 10 0 1 0;
#X connect 11 0 3 1;
#X connect 12 0 10 0;
#X restore 463 283 pd blip;
#N canvas 42 139 517 419 blip 0;
#X obj 120 253 osc~;
#X obj 181 251 vline~;
#X obj 169 286 *~;
#X obj 137 342 *~;
#X obj 137 369 outlet~;
#X obj 104 117 mtof;
#X obj 301 42 inlet;
#X obj 103 82 unpack f f;
#X obj 184 117 t b f;
#X obj 104 35 inlet;
#X msg 180 216 1 2 0 \, 0 \$1 3;
#X obj 182 320 *~;
#X obj 166 158 float;
#X connect 0 0 3 0;
#X connect 1 0 2 0;
#X connect 1 0 2 1;
#X connect 2 0 11 0;
#X connect 3 0 4 0;
#X connect 5 0 0 0;
#X connect 6 0 12 1;
#X connect 7 0 5 0;
#X connect 7 1 8 0;
#X connect 8 0 12 0;
#X connect 8 1 11 1;
#X connect 9 0 7 0;
#X connect 10 0 1 0;
#X connect 11 0 3 1;
#X connect 12 0 10 0;
#X restore 529 283 pd blip;
#X obj 178 566 outlet~;
#N canvas 42 139 517 419 blip 0;
#X obj 120 253 osc~;
#X obj 181 251 vline~;
#X obj 169 286 *~;
#X obj 137 342 *~;
#X obj 137 369 outlet~;
#X obj 104 117 mtof;
#X obj 301 42 inlet;
#X obj 103 82 unpack f f;
#X obj 184 117 t b f;
#X obj 104 35 inlet;
#X msg 180 216 1 2 0 \, 0 \$1 3;
#X obj 182 320 *~;
#X obj 166 158 float;
#X connect 0 0 3 0;
#X connect 1 0 2 0;
#X connect 1 0 2 1;
#X connect 2 0 11 0;
#X connect 3 0 4 0;
#X connect 5 0 0 0;
#X connect 6 0 12 1;
#X connect 7 0 5 0;
#X connect 7 1 8 0;
#X connect 8 0 12 0;
#X connect 8 1 11 1;
#X connect 9 0 7 0;
#X connect 10 0 1 0;
#X connect 11 0 3 1;
#X connect 12 0 10 0;
#X restore 117 332 pd blip;
#N canvas 42 139 517 419 blip 0;
#X obj 120 253 osc~;
#X obj 181 251 vline~;
#X obj 169 286 *~;
#X obj 137 342 *~;
#X obj 137 369 outlet~;
#X obj 104 117 mtof;
#X obj 301 42 inlet;
#X obj 103 82 unpack f f;
#X obj 184 117 t b f;
#X obj 104 35 inlet;
#X msg 180 216 1 2 0 \, 0 \$1 3;
#X obj 182 320 *~;
#X obj 166 158 float;
#X connect 0 0 3 0;
#X connect 1 0 2 0;
#X connect 1 0 2 1;
#X connect 2 0 11 0;
#X connect 3 0 4 0;
#X connect 5 0 0 0;
#X connect 6 0 12 1;
#X connect 7 0 5 0;
#X connect 7 1 8 0;
#X connect 8 0 12 0;
#X connect 8 1 11 1;
#X connect 9 0 7 0;
#X connect 10 0 1 0;
#X connect 11 0 3 1;
#X connect 12 0 10 0;
#X restore 183 332 pd blip;
#N canvas 42 139 517 419 blip 0;
#X obj 120 253 osc~;
#X obj 181 251 vline~;
#X obj 169 286 *~;
#X obj 137 342 *~;
#X obj 137 369 outlet~;
#X obj 104 117 mtof;
#X obj 301 42 inlet;
#X obj 103 82 unpack f f;
#X obj 184 117 t b f;
#X obj 104 35 inlet;
#X msg 180 216 1 2 0 \, 0 \$1 3;
#X obj 182 320 *~;
#X obj 166 158 float;
#X connect 0 0 3 0;
#X connect 1 0 2 0;
#X connect 1 0 2 1;
#X connect 2 0 11 0;
#X connect 3 0 4 0;
#X connect 5 0 0 0;
#X connect 6 0 12 1;
#X connect 7 0 5 0;
#X connect 7 1 8 0;
#X connect 8 0 12 0;
#X connect 8 1 11 1;
#X connect 9 0 7 0;
#X connect 10 0 1 0;
#X connect 11 0 3 1;
#X connect 12 0 10 0;
#X restore 243 333 pd blip;
#N canvas 42 139 517 419 blip 0;
#X obj 120 253 osc~;
#X obj 181 251 vline~;
#X obj 169 286 *~;
#X obj 137 342 *~;
#X obj 137 369 outlet~;
#X obj 104 117 mtof;
#X obj 301 42 inlet;
#X obj 103 82 unpack f f;
#X obj 184 117 t b f;
#X obj 104 35 inlet;
#X msg 180 216 1 2 0 \, 0 \$1 3;
#X obj 182 320 *~;
#X obj 166 158 float;
#X connect 0 0 3 0;
#X connect 1 0 2 0;
#X connect 1 0 2 1;
#X connect 2 0 11 0;
#X connect 3 0 4 0;
#X connect 5 0 0 0;
#X connect 6 0 12 1;
#X connect 7 0 5 0;
#X connect 7 1 8 0;
#X connect 8 0 12 0;
#X connect 8 1 11 1;
#X connect 9 0 7 0;
#X connect 10 0 1 0;
#X connect 11 0 3 1;
#X connect 12 0 10 0;
#X restore 309 333 pd blip;
#N canvas 42 139 517 419 blip 0;
#X obj 120 253 osc~;
#X obj 181 251 vline~;
#X obj 169 286 *~;
#X obj 137 342 *~;
#X obj 137 369 outlet~;
#X obj 104 117 mtof;
#X obj 301 42 inlet;
#X obj 103 82 unpack f f;
#X obj 184 117 t b f;
#X obj 104 35 inlet;
#X msg 180 216 1 2 0 \, 0 \$1 3;
#X obj 182 320 *~;
#X obj 166 158 float;
#X connect 0 0 3 0;
#X connect 1 0 2 0;
#X connect 1 0 2 1;
#X connect 2 0 11 0;
#X connect 3 0 4 0;
#X connect 5 0 0 0;
#X connect 6 0 12 1;
#X connect 7 0 5 0;
#X connect 7 1 8 0;
#X connect 8 0 12 0;
#X connect 8 1 11 1;
#X connect 9 0 7 0;
#X connect 10 0 1 0;
#X connect 11 0 3 1;
#X connect 12 0 10 0;
#X restore 372 337 pd blip;
#N canvas 42 139 517 419 blip 0;
#X obj 120 253 osc~;
#X obj 181 251 vline~;
#X obj 169 286 *~;
#X obj 137 342 *~;
#X obj 137 369 outlet~;
#X obj 104 117 mtof;
#X obj 301 42 inlet;
#X obj 103 82 unpack f f;
#X obj 184 117 t b f;
#X obj 104 35 inlet;
#X msg 180 216 1 2 0 \, 0 \$1 3;
#X obj 182 320 *~;
#X obj 166 158 float;
#X connect 0 0 3 0;
#X connect 1 0 2 0;
#X connect 1 0 2 1;
#X connect 2 0 11 0;
#X connect 3 0 4 0;
#X connect 5 0 0 0;
#X connect 6 0 12 1;
#X connect 7 0 5 0;
#X connect 7 1 8 0;
#X connect 8 0 12 0;
#X connect 8 1 11 1;
#X connect 9 0 7 0;
#X connect 10 0 1 0;
#X connect 11 0 3 1;
#X connect 12 0 10 0;
#X restore 438 337 pd blip;
#N canvas 42 139 517 419 blip 0;
#X obj 120 253 osc~;
#X obj 181 251 vline~;
#X obj 169 286 *~;
#X obj 137 342 *~;
#X obj 137 369 outlet~;
#X obj 104 117 mtof;
#X obj 301 42 inlet;
#X obj 103 82 unpack f f;
#X obj 184 117 t b f;
#X obj 104 35 inlet;
#X msg 180 216 1 2 0 \, 0 \$1 3;
#X obj 182 320 *~;
#X obj 166 158 float;
#X connect 0 0 3 0;
#X connect 1 0 2 0;
#X connect 1 0 2 1;
#X connect 2 0 11 0;
#X connect 3 0 4 0;
#X connect 5 0 0 0;
#X connect 6 0 12 1;
#X connect 7 0 5 0;
#X connect 7 1 8 0;
#X connect 8 0 12 0;
#X connect 8 1 11 1;
#X connect 9 0 7 0;
#X connect 10 0 1 0;
#X connect 11 0 3 1;
#X connect 12 0 10 0;
#X restore 498 338 pd blip;
#N canvas 42 139 517 419 blip 0;
#X obj 120 253 osc~;
#X obj 181 251 vline~;
#X obj 169 286 *~;
#X obj 137 342 *~;
#X obj 137 369 outlet~;
#X obj 104 117 mtof;
#X obj 301 42 inlet;
#X obj 103 82 unpack f f;
#X obj 184 117 t b f;
#X obj 104 35 inlet;
#X msg 180 216 1 2 0 \, 0 \$1 3;
#X obj 182 320 *~;
#X obj 166 158 float;
#X connect 0 0 3 0;
#X connect 1 0 2 0;
#X connect 1 0 2 1;
#X connect 2 0 11 0;
#X connect 3 0 4 0;
#X connect 5 0 0 0;
#X connect 6 0 12 1;
#X connect 7 0 5 0;
#X connect 7 1 8 0;
#X connect 8 0 12 0;
#X connect 8 1 11 1;
#X connect 9 0 7 0;
#X connect 10 0 1 0;
#X connect 11 0 3 1;
#X connect 12 0 10 0;
#X restore 564 338 pd blip;
#X obj 302 17 pack f f;
#X obj 377 132 / 128;
#X obj 302 41 stripnote;
#X obj 307 69 pack f f;
#X obj 181 535 *~ 0.3;
#X obj 503 -14 r fromGUI;
#X obj 504 15 list trim;
#X obj 504 40 route /decay;
#X floatatom 491 80 5 0 0 0 - - -, f 5;
#X obj 449 489 hsl 128 15 0 1 0 0 empty empty empty -2 -8 0 10 -262144
-1 -1 6350 1;
#X obj 498 433 r ModeSwingVol;
#X msg 698 505 stop;
#X obj 697 457 writesf~ 2;
#X obj 812 366 bng 15 250 50 0 empty RecDry empty 17 7 0 10 -262144
-1 -1;
#X obj 691 351 r RecNormal;
#X text 770 342 Record: Dry (No Reverb);
#X obj 768 500 bng 15 250 50 0 empty RecStop empty 17 7 0 10 -262144
-1 -1;
#X msg 946 502 stop;
#X obj 945 454 writesf~ 2;
#X obj 1060 363 bng 15 250 50 0 empty RecNormal empty 17 7 0 10 -262144
-1 -1;
#X obj 939 348 r RecNormal;
#X text 1018 339 Record: Wet (With Reverb);
#X obj 1021 514 bng 15 250 50 0 empty RecStop empty 17 7 0 10 -262144
-1 -1;
#X obj 488 553 catch~ busL;
#X obj 628 575 catch~ busR;
#X msg 697 402 open recordings/modeswingdry.wav \, start;
#X msg 958 400 open recordings/modeswing.wav \, start;
#X connect 0 0 27 0;
#X connect 1 0 23 0;
#X connect 2 0 0 1;
#X connect 2 0 7 1;
#X connect 2 0 8 1;
#X connect 2 0 9 1;
#X connect 2 0 10 1;
#X connect 2 0 11 1;
#X connect 2 0 12 1;
#X connect 2 0 13 1;
#X connect 2 0 15 1;
#X connect 2 0 16 1;
#X connect 2 0 17 1;
#X connect 2 0 18 1;
#X connect 2 0 19 1;
#X connect 2 0 20 1;
#X connect 2 0 21 1;
#X connect 2 0 22 1;
#X connect 3 0 6 0;
#X connect 4 0 3 0;
#X connect 4 1 3 1;
#X connect 4 2 24 0;
#X connect 5 0 23 1;
#X connect 6 0 0 0;
#X connect 6 1 7 0;
#X connect 6 2 8 0;
#X connect 6 3 9 0;
#X connect 6 4 10 0;
#X connect 6 5 11 0;
#X connect 6 6 12 0;
#X connect 6 7 13 0;
#X connect 6 8 15 0;
#X connect 6 9 16 0;
#X connect 6 10 17 0;
#X connect 6 11 18 0;
#X connect 6 12 19 0;
#X connect 6 13 20 0;
#X connect 6 14 21 0;
#X connect 6 15 22 0;
#X connect 7 0 27 0;
#X connect 8 0 27 0;
#X connect 9 0 27 0;
#X connect 10 0 27 0;
#X connect 11 0 27 0;
#X connect 12 0 27 0;
#X connect 13 0 27 0;
#X connect 15 0 27 0;
#X connect 16 0 27 0;
#X connect 17 0 27 0;
#X connect 18 0 27 0;
#X connect 19 0 27 0;
#X connect 20 0 27 0;
#X connect 21 0 27 0;
#X connect 22 0 27 0;
#X connect 23 0 25 0;
#X connect 24 0 3 2;
#X connect 25 0 26 0;
#X connect 25 1 26 1;
#X connect 26 0 4 0;
#X connect 27 0 14 0;
#X connect 27 0 35 0;
#X connect 27 0 35 1;
#X connect 27 0 41 0;
#X connect 27 0 41 1;
#X connect 28 0 29 0;
#X connect 29 0 30 0;
#X connect 30 0 31 0;
#X connect 31 0 2 0;
#X connect 32 0 27 1;
#X connect 32 0 27 0;
#X connect 33 0 32 0;
#X connect 34 0 35 0;
#X connect 36 0 48 0;
#X connect 37 0 36 0;
#X connect 39 0 34 0;
#X connect 40 0 41 0;
#X connect 42 0 49 0;
#X connect 43 0 42 0;
#X connect 45 0 40 0;
#X connect 46 0 41 0;
#X connect 47 0 41 1;
#X connect 48 0 35 0;
#X connect 49 0 41 0;
#X coords 0 -1 1 1 138 16 1 18 -19;
#X restore 30 53 pd poly_blip1;
#X obj 26 324 dac~;
#X obj 497 154 bng 15 250 50 0 empty empty empty 17 7 0 10 -262144
-1 -1;
#X obj 32 26 tgl 15 0 on_off empty I/0 17 7 0 10 -262144 -1 -1 0 1
;
#X obj 486 311 +, f 2;
#X msg 524 264 0;
#X msg 555 284 12;
#X obj 418 233 tabread array1;
#X obj 533 201 random 3;
#X obj 531 230 sel 0 1 2;
#X msg 620 293 24;
#X obj 266 601 + 60;
#X floatatom 428 356 5 0 0 0 - - -, f 5;
#X msg 428 323 250, f 4;
#X obj 371 305 metro;
#X obj 479 353 t f b;
#X floatatom 635 391 5 0 0 0 - - -, f 5;
#X obj 609 365 + 50;
#X obj 609 337 random 50;
#X obj 58 280 rev3~ 90 90, f 15;
#X floatatom 226 301 5 50 100 0 - - -, f 5;
#X obj 398 12 expr 60000/$f1/4;
#X obj 30 69 hsl 133 15 0 100 0 0 empty reverb empty -2 -8 0 10 -262144
-1 -1 10560 1;
#X text 32 52 Decay;
#X text 32 68 Reverb;
#X obj 522 3 bng 15 250 50 0 empty empty empty 17 7 0 10 -262144 -1
-1;
#X obj 522 26 f;
#X obj 562 26 + 1;
#X obj 522 61 % 300;
#X floatatom 168 84 5 5 300 0 - - -, f 5;
#X obj 30 84 hsl 133 15 5 300 0 0 empty bpm empty 5 20 0 10 -262144
-1 -1 4251 1;
#X obj 621 72 i;
#X msg 27 497 60;
#X msg 68 497 61;
#X msg 108 496 62;
#X msg 153 495 63;
#X msg 198 495 64;
#X msg 241 496 65;
#X msg 286 496 66;
#X msg 331 495 67;
#X msg 370 494 68;
#X msg 413 494 69;
#X msg 455 493 70;
#X msg 499 493 71;
#X obj 27 424 sel 0 1 2 3 4 5 6 7 8 9 10 11;
#X obj 27 388 r KeySelector;
#X text 33 83 BPM;
#X obj 30 99 hsl 133 15 0 1 0 0 ModeSwingVol vol empty -2 -8 0 10 -262144
-1 -1 6600 1;
#X obj 63 174 vradio 15 0 0 3 RecDeck empty empty 0 -8 0 10 -262144
-1 -1 0;
#X obj 217 42 vradio 15 0 0 14 ModeSelector empty Modes 0 -8 0 10 -262144
-1 -1 0;
#X obj 333 41 vradio 15 0 0 12 KeySelector empty empty 0 -8 0 10 -262144
-1 -1 0;
#X text 232 40 ionian;
#X text 232 56 dorian;
#X text 232 70 phrygian;
#X text 232 86 lydian;
#X text 232 100 mixolydian;
#X text 232 115 aeolian;
#X text 232 175 octatonic;
#X text 232 160 whole-tone;
#X text 232 145 pentatonic;
#X text 232 130 locrian;
#X text 232 220 heroic;
#X text 348 39 C;
#X text 348 54 C#;
#X text 348 69 D;
#X text 348 84 D#;
#X text 348 99 E;
#X text 348 114 F;
#X text 348 129 F#;
#X text 348 144 G;
#X text 348 159 G#;
#X text 348 174 A;
#X text 348 189 A#;
#X text 348 204 B;
#X obj 116 355 throw~ busR;
#X obj 116 321 throw~ busL;
#X text 78 172 Ready;
#X text 78 203 Stop Recording;
#X text 78 187 Record;
#X text 586 410 Velocity between 50-99;
#X obj 427 199 random 5;
#X text 232 235 ussak;
#X text 232 206 hicaz;
#N canvas 0 0 1350 697 modes 0;
#X msg 298 -353 \; array1 0 0 1 3 5 7 8 10 12;
#X msg 294 -33 \; array1 0 0 2 3 5 6 8 9 11 12;
#X text 473 -27 octatonic;
#X text 437 -70 whole-tone;
#X text 423 -112 pentatonic;
#X msg 295 -444 \; array1 0 0 2 4 5 7 9 11 12;
#X text 466 -439 ionian;
#X text 469 -396 dorian;
#X text 467 -347 phrygian;
#X msg 298 -305 \; array1 0 0 2 4 6 7 9 11 12;
#X text 473 -298 lydian;
#X msg 296 -256 \; array1 0 0 2 4 5 7 9 10 12;
#X text 464 -247 mixolydian;
#X msg 294 -209 \; array1 0 0 2 3 5 7 8 10 12;
#X text 465 -204 aeolian;
#X msg 295 -162 \; array1 0 0 1 3 5 6 8 10 12;
#X text 464 -154 locrian;
#X msg 298 101 \; array1 0 0 4 7 11;
#X msg 295 -119 \; array1 0 0 2 4 7 9;
#X msg 295 14 \; array1 0 0 2 3 6 7 9 10 12;
#X msg 297 -400 \; array1 0 0 2 3 5 7 9 10 12;
#X text 415 108 heroic;
#X msg 292 -77 \; array1 0 0 2 4 6 8 10;
#X obj 30 -444 r ModeSelector;
#X obj 33 -409 sel 0 1 2 3 4 5 6 7 8 9 10 11 12 13 14;
#X msg 300 142 \; array1 0 0 0.5 3 5 7 8 10 12;
#X msg 298 57 \; array1 0 0 1 3 4 5 8 11 12;
#X text 470 67 hicaz;
#X text 476 150 ussak;
#X obj 545 -462 loadbang;
#X text 471 20 romanian;
#X connect 23 0 24 0;
#X connect 24 0 5 0;
#X connect 24 1 20 0;
#X connect 24 2 0 0;
#X connect 24 3 9 0;
#X connect 24 4 11 0;
#X connect 24 5 13 0;
#X connect 24 6 15 0;
#X connect 24 7 18 0;
#X connect 24 8 22 0;
#X connect 24 9 1 0;
#X connect 24 10 19 0;
#X connect 24 11 26 0;
#X connect 24 12 17 0;
#X connect 24 14 25 0;
#X connect 29 0 5 0;
#X restore 697 21 pd modes;
#N canvas 188 195 450 323 start 0;
#X obj 29 10 loadbang;
#X msg 171 72 \; reverb 80 \;;
#X msg 26 72 \; bpm 100 \;;
#X msg 260 67 \; vol 0.5 \;;
#X msg 99 80 \; decay 90 \;;
#X connect 0 0 2 0;
#X connect 0 0 4 0;
#X connect 0 0 1 0;
#X connect 0 0 3 0;
#X restore 697 101 pd start values;
#X obj 369 276 tgl 15 0 empty on_off empty 17 7 0 10 -262144 -1 -1
0 1;
#N canvas 0 0 450 300 array 0;
#N canvas 0 0 450 300 (subpatch) 0;
#X array array1 5 float 3 black black;
#A 0 0 2 4 5 7;
#X coords 0 11 5 0 100 50 1;
#X restore 16 17 graph;
#X restore 696 47 pd array;
#N canvas 167 238 450 369 commands 0;
#X obj 65 -4 vradio 15 0 0 5 empty RecDeck empty 0 -8 0 10 -262144
-1 -1 0;
#X obj 62 123 bng 15 250 50 0 RecNormal empty empty 17 7 0 10 -262144
-1 -1;
#X msg 46 172 RecNormal;
#X obj 95 122 bng 15 250 50 0 RecStop empty empty 17 7 0 10 -262144
-1 -1;
#X obj 66 83 sel 0 1 2 3;
#X msg 118 173 RecStop;
#X connect 0 0 4 0;
#X connect 1 0 2 0;
#X connect 3 0 5 0;
#X connect 4 1 1 0;
#X connect 4 2 3 0;
#X restore 697 74 pd commands;
#X text 232 191 romanian;
#X text 288 253 Mode Swing v.4;
#X connect 0 0 1 1;
#X connect 0 0 19 0;
#X connect 0 0 19 1;
#X connect 0 0 1 0;
#X connect 2 0 18 0;
#X connect 2 0 8 0;
#X connect 2 0 20 0;
#X connect 2 0 80 0;
#X connect 4 0 15 0;
#X connect 5 0 4 1;
#X connect 6 0 4 1;
#X connect 7 0 11 0;
#X connect 8 0 9 0;
#X connect 9 0 5 0;
#X connect 9 1 6 0;
#X connect 9 2 10 0;
#X connect 10 0 4 1;
#X connect 11 0 4 0;
#X connect 12 0 14 1;
#X connect 13 0 12 0;
#X connect 14 0 2 0;
#X connect 15 0 0 0;
#X connect 17 0 16 0;
#X connect 17 0 0 1;
#X connect 18 0 17 0;
#X connect 19 0 1 0;
#X connect 19 0 75 0;
#X connect 19 1 1 1;
#X connect 19 1 74 0;
#X connect 20 0 19 3;
#X connect 21 0 14 1;
#X connect 22 0 20 0;
#X connect 25 0 26 0;
#X connect 26 0 27 0;
#X connect 26 0 28 0;
#X connect 27 0 26 1;
#X connect 28 0 29 0;
#X connect 29 0 21 0;
#X connect 30 0 31 0;
#X connect 31 0 29 0;
#X connect 32 0 11 1;
#X connect 33 0 11 1;
#X connect 34 0 11 1;
#X connect 35 0 11 1;
#X connect 36 0 11 1;
#X connect 37 0 11 1;
#X connect 38 0 11 1;
#X connect 39 0 11 1;
#X connect 40 0 11 1;
#X connect 41 0 11 1;
#X connect 42 0 11 1;
#X connect 43 0 11 1;
#X connect 44 0 32 0;
#X connect 44 1 33 0;
#X connect 44 2 34 0;
#X connect 44 3 35 0;
#X connect 44 4 36 0;
#X connect 44 5 37 0;
#X connect 44 6 38 0;
#X connect 44 7 39 0;
#X connect 44 8 40 0;
#X connect 44 9 41 0;
#X connect 44 10 42 0;
#X connect 44 11 43 0;
#X connect 45 0 44 0;
#X connect 80 0 7 0;
#X connect 85 0 14 0;
#X coords 0 -1 1 1 353 254 2 24 16;
#X restore 23 -1 pd controller01;
#X coords 0 681 1 680 85 60 0;
